# Tiled2Unity generated file. Do not modify by hand.
# Wavefront file for 'Level_01_mesh_0002.obj'

# Vertices (Count = 96)
v -7.52 -8.32 0
v -7.68 -8.32 0
v -7.68 -8.16 0
v -7.52 -8.16 0
v -7.68 -8.32 0
v -7.84 -8.32 0
v -7.84 -8.16 0
v -7.68 -8.16 0
v -7.52 -8.48 0
v -7.68 -8.48 0
v -7.68 -8.32 0
v -7.52 -8.32 0
v -7.68 -8.48 0
v -7.84 -8.48 0
v -7.84 -8.32 0
v -7.68 -8.32 0
v -7.52 -8.639999 0
v -7.68 -8.639999 0
v -7.68 -8.48 0
v -7.52 -8.48 0
v -7.68 -8.639999 0
v -7.84 -8.639999 0
v -7.84 -8.48 0
v -7.68 -8.48 0
v -7.52 -8.8 0
v -7.68 -8.8 0
v -7.68 -8.639999 0
v -7.52 -8.639999 0
v -7.68 -8.8 0
v -7.84 -8.8 0
v -7.84 -8.639999 0
v -7.68 -8.639999 0
v -7.52 -8.96 0
v -7.68 -8.96 0
v -7.68 -8.8 0
v -7.52 -8.8 0
v -7.68 -8.96 0
v -7.84 -8.96 0
v -7.84 -8.8 0
v -7.68 -8.8 0
v -7.52 -9.12 0
v -7.68 -9.12 0
v -7.68 -8.96 0
v -7.52 -8.96 0
v -7.68 -9.12 0
v -7.84 -9.12 0
v -7.84 -8.96 0
v -7.68 -8.96 0
v -7.52 -9.28 0
v -7.68 -9.28 0
v -7.68 -9.12 0
v -7.52 -9.12 0
v -7.68 -9.28 0
v -7.84 -9.28 0
v -7.84 -9.12 0
v -7.68 -9.12 0
v -7.52 -9.44 0
v -7.68 -9.44 0
v -7.68 -9.28 0
v -7.52 -9.28 0
v -7.68 -9.44 0
v -7.84 -9.44 0
v -7.84 -9.28 0
v -7.68 -9.28 0
v -7.52 -9.599999 0
v -7.68 -9.599999 0
v -7.68 -9.44 0
v -7.52 -9.44 0
v -7.68 -9.599999 0
v -7.84 -9.599999 0
v -7.84 -9.44 0
v -7.68 -9.44 0
v -7.52 -9.76 0
v -7.68 -9.76 0
v -7.68 -9.599999 0
v -7.52 -9.599999 0
v -7.68 -9.76 0
v -7.84 -9.76 0
v -7.84 -9.599999 0
v -7.68 -9.599999 0
v -7.52 -9.92 0
v -7.68 -9.92 0
v -7.68 -9.76 0
v -7.52 -9.76 0
v -7.68 -9.92 0
v -7.84 -9.92 0
v -7.84 -9.76 0
v -7.68 -9.76 0
v -7.52 -10.08 0
v -7.68 -10.08 0
v -7.68 -9.92 0
v -7.52 -9.92 0
v -7.68 -10.08 0
v -7.84 -10.08 0
v -7.84 -9.92 0
v -7.68 -9.92 0

# Texture cooridinates (Count = 9)
vt 0.12 0.08695652
vt 0.16 0.08695652
vt 0.16 0.1304348
vt 0.12 0.1304348
vt 0.2 0.08695652
vt 0.2 0.1304348
vt 0.12 0.04347826
vt 0.16 0.04347826
vt 0.2 0.04347826

# Normal
vn 0 0 -1

# Mesh description
g Level_01_mesh_0002

# Faces
f 1/1/1 2/2/1 3/3/1 4/4/1
f 5/2/1 6/5/1 7/6/1 8/3/1
f 9/7/1 10/8/1 11/2/1 12/1/1
f 13/8/1 14/9/1 15/5/1 16/2/1
f 17/1/1 18/2/1 19/3/1 20/4/1
f 21/2/1 22/5/1 23/6/1 24/3/1
f 25/7/1 26/8/1 27/2/1 28/1/1
f 29/8/1 30/9/1 31/5/1 32/2/1
f 33/1/1 34/2/1 35/3/1 36/4/1
f 37/2/1 38/5/1 39/6/1 40/3/1
f 41/7/1 42/8/1 43/2/1 44/1/1
f 45/8/1 46/9/1 47/5/1 48/2/1
f 49/1/1 50/2/1 51/3/1 52/4/1
f 53/2/1 54/5/1 55/6/1 56/3/1
f 57/7/1 58/8/1 59/2/1 60/1/1
f 61/8/1 62/9/1 63/5/1 64/2/1
f 65/1/1 66/2/1 67/3/1 68/4/1
f 69/2/1 70/5/1 71/6/1 72/3/1
f 73/7/1 74/8/1 75/2/1 76/1/1
f 77/8/1 78/9/1 79/5/1 80/2/1
f 81/1/1 82/2/1 83/3/1 84/4/1
f 85/2/1 86/5/1 87/6/1 88/3/1
f 89/7/1 90/8/1 91/2/1 92/1/1
f 93/8/1 94/9/1 95/5/1 96/2/1

